Complete name : Princess Protection Program (2009) 720p HDTVRip [Dual Audio] [Eng-Hin] {Rahul Pr.}
Format : Matroska
Format version : Version 4 / Version 2
File size : 795 MiB
Duration : 1h 28mn
Overall bit rate : 1 260 Kbps
Movie name : Princess Protection Program (2009) 720p HDTVRip [Dual Audio] [Eng-Hin] {Rahul Pr.}


IMDB:5.4/10(http://www.imdb.com/title/tt1196339/?ref_=sr_6)

Release Title: Princess Protection Program 2009

Release Date: 26 June 2009 (USA)

Film Length: 1:28:12

Tagline: Royality meets reality.

Genres: Comedy | Drama | Family





Video
ID : 1
Format : AVC
Format/Info : Advanced Video Codec
Format profile : High@L4.1
Format settings, CABAC : Yes
Format settings, ReFrames : 4 frames
Codec ID : V_MPEG4/ISO/AVC
Duration : 1h 28mn
Bit rate : 1 098 Kbps
Width : 1 280 pixels
Height : 720 pixels
Display aspect ratio : 16:9
Frame rate mode : Constant
Frame rate : 23.976 fps



Audio #1
ID : 2
Format : AC-3
Format/Info : Audio Coding 3
Format profile : Dolby Digital
Mode extension : CM (complete main)
Format settings, Endianness : Big
Codec ID : A_AC3
Duration : 1h 28mn
Bit rate mode : Constant
Bit rate : 64.0 Kbps
Channel(s) : 2 channels
Channel positions : Front: L R
Sampling rate : 48.0 KHz
Bit depth : 16 bits
Compression mode : Lossy
Stream size : 40.4 MiB (5%)
Title : {Rahul Pr.}
Language : English


Audio #2
ID : 3
Format : AC-3
Format/Info : Audio Coding 3
Mode extension : CM (complete main)
Format settings, Endianness : Big
Codec ID : A_AC3
Duration : 1h 28mn
Bit rate mode : Constant
Bit rate : 96.0 Kbps
Channel(s) : 2 channels
Channel positions : Front: L R
Sampling rate : 48.0 KHz
Bit depth : 16 bits
Compression mode : Lossy
Stream size : 60.6 MiB (8%)
Title : {Rahul Pr.}
Language : Hindi